# xmcd CD database file
#
# Track frame offsets:
#	150
#	17920
#	33759
#	63837
#	84871
#	100657
#	115980
#	132187
#	141186
#
# Disc length: 2328 seconds
#
# Revision: 0
# Processed by: cddbd v1.5.2PL0 Copyright (c) Steve Scherf et al.
# Submitted via: CDex 1.70beta2
#
DISCID=69091609
DTITLE=Michel Blanc - Le Passage Eclair
DYEAR=2005
DGENRE=Jazz
TTITLE0=Le Passage Eclair
TTITLE1=Les Pensees de Lucie
TTITLE2=Mais Ou Luciano Se Cache-t-il?
TTITLE3=Rituel Organique
TTITLE4=Le Reve Des Machines
TTITLE5=L'Agitation De L'Ours Savant
TTITLE6=Le Marche En Avant
TTITLE7=Complicite
TTITLE8=Inertie
EXTD=YEAR: 2005
EXTT0=
EXTT1=
EXTT2=
EXTT3=
EXTT4=
EXTT5=
EXTT6=
EXTT7=
EXTT8=
PLAYORDER=
